<?xml version="1.0" encoding="utf-8"?>
<!-- Generator: Adobe Illustrator 25.4.1, SVG Export Plug-In . SVG Version: 6.00 Build 0)  -->
<svg version="1.1" id="Layer_1" xmlns="http://www.w3.org/2000/svg" xmlns:xlink="http://www.w3.org/1999/xlink" x="0px" y="0px"
	 viewBox="0 0 170.1 141.7" style="enable-background:new 0 0 170.1 141.7;" xml:space="preserve">
<style type="text/css">
	.st0{fill:#FFFFFF;}
	.st1{fill-rule:evenodd;clip-rule:evenodd;fill:#FFFFFF;}
</style>
<path class="st0" d="M86.9,79.8c-1.2,0.2-2.3,1-3,2c-1,1.6-1.1,3.7-1,5.5c0.1,1.6,0.7,3.3,1.9,4.4c1.1,1.1,2.9,1.3,4.4,0.9
	c1.2-0.3,2.1-1.2,2.7-2.2c0.8-1.5,1-3.3,0.9-5c-0.1-1.7-0.6-3.5-1.8-4.7C89.8,79.8,88.3,79.5,86.9,79.8 M86.6,75.7
	c2.5-0.3,5.1,0.3,7.1,1.8c2.2,1.7,3.4,4.4,3.7,7.1c0.3,2.8-0.1,5.8-1.7,8.3c-1.3,2-3.4,3.4-5.7,3.9c-2.7,0.6-5.7,0.1-7.9-1.5
	c-2.2-1.6-3.5-4.2-3.9-6.8c-0.4-3,0-6.2,1.6-8.7C81.3,77.4,83.8,75.9,86.6,75.7z M69.8,75.7c2.4-0.2,4.8,0.2,7,0.9
	c-0.2,1.3-0.6,2.5-0.8,3.8c-1.2-0.4-2.5-0.8-3.8-0.9c-1.2-0.1-2.5-0.1-3.5,0.6c-1,0.6-0.9,2.3,0,3c1.2,0.9,2.7,1.2,4,1.8
	c1.5,0.6,3.1,1.3,4.1,2.7c0.8,1.1,1,2.5,1,3.8c0,1.3-0.5,2.7-1.5,3.6c-1.2,1.2-2.9,1.7-4.5,1.9c-2.9,0.3-6,0.1-8.8-1
	c-0.1-0.2,0-0.4,0-0.6c0.2-1.1,0.5-2.2,0.7-3.4c2.4,1,5,1.5,7.6,1.1c0.6-0.1,1.2-0.3,1.6-0.8c0.5-0.9,0.2-2.1-0.6-2.6
	c-2.2-1.5-5-1.8-7.1-3.5c-1.1-0.8-1.7-2.1-1.8-3.5c-0.2-1.6,0.1-3.3,1.2-4.5C65.9,76.5,67.9,75.8,69.8,75.7z M104.6,71.8
	c-0.8,1.3-0.7,2.9-0.7,4.3c2.5,0,5,0,7.5,0c0-1.7,0-3.4,0-5.1c-1.1-0.5-2.3-0.7-3.5-0.7C106.7,70.3,105.3,70.7,104.6,71.8z
	 M103.8,66.9c2.7-1,5.8-0.7,8.5,0.2c-0.2,1.2-0.6,2.4-0.8,3.7c1.6-0.2,3.1-0.5,4.7-0.8c0,2,0,4.1,0,6.1c2.4,0,4.8,0,7.2,0
	c0,1.3,0,2.6,0,4c-2.4,0-4.8,0-7.2,0c0,2.7,0,5.3,0,8c0,1.3,0,2.7,0.8,3.8c0.7,0.9,1.9,1.1,3,1c1.2,0,2.4-0.4,3.5-0.7
	c0.2,1.2,0.6,2.5,0.8,3.7c-1.4,0.5-2.8,1-4.3,1c-1.9,0.1-3.8,0-5.5-1c-1.3-0.7-2.1-2-2.5-3.4c-0.4-1.4-0.5-2.9-0.5-4.3
	c0-2.7,0-5.4,0-8.1c-2.5,0-5,0-7.5,0c-0.1,5.5,0,10.9,0,16.4c-1.6,0-3.1,0-4.7,0c0-6.5,0-13,0-19.4c0-1.9-0.1-3.8,0.4-5.6
	C100.3,69.4,101.8,67.6,103.8,66.9z M45.4,60c0.2-2.1,0.8-4.2,1.8-6C45.9,55.7,45.4,57.9,45.4,60z M45.5,56.4
	c0.5-1.4,1.4-2.7,2.3-3.9c0.7,0.2,1.5,0.4,2.2,0.7c0.1,1.6,0.1,3.2-0.3,4.8c-0.2,0.6,0.3,1.1,0.3,1.6c0.4,1.8-0.3,3.7-1.5,5.1
	c0-1,0.2-2-0.1-2.9c-0.1-0.3-0.6-0.5-0.9-0.5c-0.3,0.2-0.5,0.5-0.8,0.5c-0.4,0-0.8-0.1-1.1-0.3c-0.3-0.2-0.3-0.6-0.4-0.9
	c-0.3-0.1-0.7-0.3-0.9-0.1c-0.9,0.5-1.3,1.5-1.8,2.3c-0.1-1.4,0.1-2.9,0.9-4.1c0.4-0.6,1-1.1,1.6-1.6C45.3,57,45.4,56.7,45.5,56.4z
	 M48,52.4c0.5-0.6,1-1.1,1.6-1.6c0.2,0.7,0.4,1.4,0.4,2.2C49.3,52.8,48.7,52.6,48,52.4z M134.4,43.2c1.6,0,3.1,0,4.7,0
	c0,6.8,0,13.6,0,20.3c-1.6,0-3.1,0-4.7,0C134.4,56.8,134.4,50,134.4,43.2z M144.7,44.7c1.8-1.4,4.1-2.1,6.4-2c1.8,0,3.6,0.4,5.2,1
	c-0.3,1.3-0.6,2.6-1,3.9c-1.7-0.7-3.6-1-5.4-0.7c-1.2,0.2-2.4,0.9-3.1,2c-0.9,1.4-1.2,3.1-1.2,4.8c0,1.6,0.4,3.3,1.4,4.6
	c0.7,0.9,1.9,1.4,3,1.6c2,0.3,4,0,5.8-0.7c0.2,1.3,0.5,2.6,0.6,3.9c-2.4,0.9-5,1.2-7.5,0.9c-2.5-0.3-5-1.6-6.5-3.7
	c-1.6-2.3-2-5.2-1.8-8C141.1,49.4,142.4,46.5,144.7,44.7z M121.8,44.2c3.9-1.4,8.3-1.9,12.4-0.7c-0.3,1.3-0.5,2.7-0.8,4
	c-2.2-0.7-4.6-0.8-6.8-0.2c0,5.4,0,10.9,0,16.3c-1.6,0-3.1,0-4.7,0C121.8,57.1,121.8,50.6,121.8,44.2z M108.3,47.7
	c-1.1,0.9-1.5,2.3-1.7,3.7c2.9,0,5.8,0,8.7,0c0-1.3-0.4-2.6-1.2-3.5C112.6,46.3,109.8,46.3,108.3,47.7z M107.4,43.5
	c2.3-1,5-1,7.3-0.2c2.1,0.7,3.7,2.5,4.5,4.5c0.8,2.2,0.9,4.7,0.8,7c-4.5,0-8.9,0-13.4,0c0.1,1.3,0.5,2.6,1.5,3.5
	c0.9,1,2.2,1.4,3.5,1.5c2.2,0.2,4.5-0.1,6.5-0.9c0.2,1.3,0.4,2.6,0.6,3.9c-1.8,0.7-3.7,1-5.7,1.2c-2.6,0.1-5.3-0.3-7.5-1.8
	c-2.1-1.4-3.3-3.9-3.7-6.4c-0.4-2.8-0.2-5.8,1.2-8.4C104,45.7,105.5,44.3,107.4,43.5z M83.1,43.9c3-0.8,6.2-1.2,9.3-1.1
	c2.1,0.1,4.2,0.8,5.6,2.3c1,1.1,1.5,2.5,1.7,4c0.3,1.8,0.2,3.6,0.2,5.3c0,3,0,6.1,0,9.1c-1.6,0-3.1,0-4.7,0c0-2.9,0-5.8,0-8.6
	c0-1.9,0.1-3.9-0.4-5.7c-0.3-1-1-1.9-2.1-2.1c-1.7-0.5-3.4-0.2-5.1,0.1c0,5.5,0,10.9,0,16.4c-1.6,0-3.1,0-4.7,0
	C83.1,57,83.2,50.4,83.1,43.9z M69.6,47.7c-1.1,0.9-1.6,2.3-1.8,3.7c2.9,0,5.8,0,8.7,0c0-1.2-0.3-2.5-1.2-3.5
	C74,46.3,71.2,46.3,69.6,47.7z M64.7,46.9c1.4-2.3,3.9-3.8,6.5-4.2c2.2-0.3,4.6,0.1,6.5,1.4c1.5,1,2.5,2.6,3,4.3
	c0.6,2.1,0.7,4.3,0.5,6.4c-4.5,0-8.9,0-13.4,0c0.1,1.3,0.6,2.7,1.6,3.6c1.2,1.1,2.9,1.5,4.5,1.5c1.9,0,3.7-0.3,5.5-0.9
	c0.2,1.3,0.4,2.6,0.6,3.9c-1.6,0.7-3.3,1-5,1.1c-2.7,0.2-5.7-0.1-8-1.7c-2.1-1.4-3.4-3.8-3.8-6.3C62.7,53,63,49.6,64.7,46.9z
	 M32.7,47.8c-3.1,2.7-4.7,6.8-5.1,10.8c-0.5,4.5-0.1,9.4,2.3,13.4c0.6-0.1,1.1-0.3,1.7-0.2c1,0.1,2.1,0.5,2.5,1.6
	c-0.1-0.4-0.1-0.7-0.2-1.1c0.6-0.7,1.5-1.3,2.4-1.3c0.8,0,1.4,0.4,2,0.8c2.2-3.5,4.4-6.9,6.6-10.3c-1.8,3.6-3.7,7.1-5.1,10.9
	c-2,0.1-4,0.8-5.3,2.4c0.5-0.3,0.9-0.6,1.4-0.9c1.4-0.8,3-0.9,4.5-0.8c0.4,0.4,1,0.8,0.8,1.5c-0.3,0.9-0.3,1.8-0.3,2.7
	c0.2-1,0.4-2.1,1-2.9c0.8-1.2,2.2-1.8,3.5-1.8c1.8,0,3.6,0.8,4.9,2c-1-1.7-3.1-2.3-4.9-2.4c0.2-1.8,0.7-3.6,1-5.3
	c0.3-1.7,0.6-3.4,1-5c-0.1,3.2-0.5,6.3-0.7,9.5c1.2-0.1,2.4,0.1,3.3,0.9c0.5,0.6,1.4,0.3,2.1,0.6c0-9.1,0-18.2,0-27.3
	c-3.3-0.9-6.7-1.1-10.1-1.1C38.7,44.6,35.2,45.6,32.7,47.8z M31.7,38.7c3.9-1.8,8.3-2.2,12.6-2.1c3.5,0.1,6.9,0.4,10.3,1.1
	c2.2,0.4,4.4,0.9,6.6,1.4c0,13.4,0,26.9,0,40.3c0,3,0.1,6-0.3,9c-0.4,3.1-1.3,6.2-3,8.9c-1.2,1.9-2.8,3.4-4.7,4.6
	c-2.9,1.9-6.3,2.8-9.7,3.3c-7.6,1-15.3,0.2-22.6-2.2c0.5-2.6,1.1-5.2,1.6-7.8c3.2,1.2,6.5,2,9.9,2.4c3.3,0.4,6.7,0.4,10-0.1
	c2.5-0.5,5-1.4,6.8-3.3c1.8-1.9,2.6-4.5,2.8-7.1c0.2-1.5,0.1-3,0.1-4.5c-1.3,0.8-2.7,1.3-4.1,1.8c-3.2,1.2-6.7,1.5-10,1.3
	c-2.6-0.2-5.2-0.8-7.7-1.8c-2.9-1.3-5.5-3.3-7.4-5.8c-2.7-3.6-4.3-7.9-4.7-12.4c-0.6-6,0-12.4,3.1-17.8
	C23.7,43.9,27.4,40.6,31.7,38.7z M135.7,34.5c0.9-0.3,2.1-0.2,2.8,0.5c1.2,0.9,1.3,2.7,0.6,3.9c-0.9,1.4-3.1,1.7-4.4,0.6
	c-1.1-0.8-1.3-2.4-0.8-3.6C134.4,35.3,135,34.7,135.7,34.5z"/>
<path class="st1" d="M48.3,54.3c0.6,0,1,0.4,1,1s-0.4,1-1,1c-0.6,0-1-0.4-1-1S47.8,54.3,48.3,54.3"/>
</svg>
